<?xml version="1.0" standalone="no"?>
<!DOCTYPE svg PUBLIC "-//W3C//DTD SVG 20010904//EN"
 "http://www.w3.org/TR/2001/REC-SVG-20010904/DTD/svg10.dtd">
<svg version="1.0" xmlns="http://www.w3.org/2000/svg"
 width="486.000000pt" height="445.000000pt" viewBox="0 0 486.000000 445.000000"
 preserveAspectRatio="xMidYMid meet">

<g transform="translate(0.000000,445.000000) scale(0.100000,-0.100000)"
fill="#000000" stroke="none">
<path d="M0 2225 l0 -2225 2430 0 2430 0 0 2225 0 2225 -2430 0 -2430 0 0
-2225z m2690 1986 c0 -5 24 -12 53 -15 119 -16 164 -25 202 -39 22 -9 56 -16
76 -17 22 0 44 -8 58 -22 21 -19 28 -20 54 -10 28 11 35 9 70 -16 99 -68 134
-87 177 -92 35 -4 47 -10 55 -28 10 -22 18 -23 58 -7 13 6 20 0 31 -27 11 -26
24 -37 53 -46 62 -19 101 -49 133 -101 17 -27 46 -59 65 -70 25 -14 42 -38 63
-83 32 -71 52 -92 90 -93 20 0 28 -6 33 -25 11 -46 21 -70 30 -70 16 0 99
-112 99 -133 0 -12 9 -38 19 -57 51 -92 71 -137 70 -165 0 -23 -4 -17 -15 25
-8 30 -28 75 -44 100 -15 25 -33 63 -39 86 -13 47 -75 134 -96 134 -8 0 -15 9
-15 19 0 11 -4 23 -10 26 -5 3 -10 17 -10 31 0 21 -3 24 -25 18 -31 -8 -64 26
-100 104 -17 37 -38 65 -61 80 -19 12 -48 44 -64 70 -31 51 -67 77 -132 95
-35 10 -43 18 -50 45 -9 32 -21 41 -33 22 -12 -19 -45 -10 -55 15 -8 21 -16
25 -51 25 -35 0 -57 10 -130 59 -81 56 -89 59 -117 49 -25 -10 -33 -8 -57 10
-16 13 -42 22 -62 22 -18 0 -50 7 -71 16 -20 9 -66 20 -102 25 -106 15 -134
20 -155 29 -11 5 -38 11 -60 13 -35 3 -33 4 13 5 28 1 52 -2 52 -7z m-127 -12
c-10 -4 -47 -5 -83 -2 -39 3 -98 -1 -149 -11 -112 -22 -138 -18 -31 4 81 18
306 25 263 9z m-360 -36 c-7 -2 -19 -2 -25 0 -7 3 -2 5 12 5 14 0 19 -2 13 -5z
m-163 -20 c-81 -12 -212 -47 -285 -78 -14 -5 -17 -5 -10 2 30 32 264 91 355
91 19 0 -8 -7 -60 -15z m-310 -87 c0 -3 -24 -12 -53 -20 -50 -15 -189 -86
-247 -126 -14 -10 -34 -20 -46 -24 -11 -3 -52 -31 -90 -61 -38 -30 -74 -55
-81 -55 -6 0 -15 -9 -18 -20 -3 -11 -10 -20 -15 -20 -5 0 -22 -13 -38 -30 -17
-16 -40 -30 -51 -30 -20 0 -24 -9 -45 -102 -4 -19 -13 -28 -27 -28 -36 0 -78
-29 -98 -68 -20 -38 -123 -183 -172 -239 -15 -17 -30 -44 -33 -60 -4 -16 -29
-57 -57 -93 -85 -110 -91 -121 -84 -163 5 -32 1 -41 -22 -61 l-28 -24 18 -37
c17 -36 17 -36 -8 -69 -17 -22 -25 -46 -25 -72 0 -21 -5 -46 -11 -54 -9 -12
-10 -12 -5 3 3 10 6 36 6 57 0 27 8 48 26 69 25 30 25 33 10 56 -23 35 -20 60
9 79 22 14 25 22 19 50 -7 41 7 69 74 153 28 34 56 79 62 100 7 21 20 47 30
58 48 55 149 195 168 230 27 53 63 86 103 94 29 6 34 12 41 46 16 83 17 85 43
85 14 0 34 10 45 23 12 12 29 30 38 41 9 10 40 33 67 51 28 17 70 48 93 68 24
21 51 37 60 37 8 0 29 11 46 24 80 60 296 157 296 132z m903 -273 c3 -5 -25
-8 -61 -9 -42 -1 -59 2 -47 7 26 10 102 11 108 2z m-160 -10 c-18 -2 -48 -2
-65 0 -18 2 -4 4 32 4 36 0 50 -2 33 -4z m-148 -19 c-27 -7 -86 -16 -130 -18
l-80 -5 80 10 c44 5 94 14 110 18 17 5 39 9 50 9 11 0 -2 -6 -30 -14z m420 3
c28 1 128 -27 122 -34 -3 -3 -27 2 -52 10 -25 9 -52 14 -59 11 -7 -3 -29 2
-47 10 -20 10 -24 13 -9 9 14 -4 34 -6 45 -6z m683 -29 c-5 -57 -57 -48 -58
10 0 18 5 22 31 22 28 0 30 -2 27 -32z m-1325 -5 c-7 -2 -19 -2 -25 0 -7 3 -2
5 12 5 14 0 19 -2 13 -5z m-54 -7 c-2 -2 -33 -12 -68 -21 -35 -9 -79 -25 -99
-36 -20 -10 -44 -19 -52 -19 -14 0 -117 -50 -215 -104 -22 -12 -71 -45 -110
-73 -38 -29 -72 -49 -75 -46 -3 3 1 8 8 10 7 3 36 23 64 46 29 22 70 51 93 63
22 12 73 40 114 63 40 22 92 46 115 52 22 6 55 18 71 27 39 20 169 52 154 38z
m944 -16 c24 0 54 -13 101 -45 41 -27 79 -45 96 -45 20 0 33 -7 40 -22 10 -21
10 -21 -3 -5 -8 9 -24 17 -36 17 -27 0 -96 34 -135 67 -23 19 -37 24 -63 20
-24 -4 -39 0 -55 14 -23 20 -23 20 -1 10 12 -6 37 -11 56 -11z m-333 -110
c-41 -4 -91 -11 -110 -15 -19 -4 -32 -4 -27 1 11 11 83 22 152 21 60 0 60 0
-15 -7z m296 -5 c12 -9 44 -14 92 -15 67 0 77 -3 112 -31 28 -22 53 -33 87
-36 26 -3 82 -21 123 -41 41 -20 78 -36 83 -34 4 1 7 -2 7 -8 0 -15 -5 -13
-89 30 -50 26 -91 40 -115 40 -37 0 -126 43 -126 61 0 5 -33 9 -74 9 -52 0
-87 6 -117 20 -29 13 -37 20 -23 20 11 0 29 -7 40 -15z m324 -5 c-8 -5 -19
-10 -25 -10 -5 0 -3 5 5 10 8 5 20 10 25 10 6 0 3 -5 -5 -10z m-830 -32 c-36
-10 -98 -33 -139 -49 -41 -16 -76 -27 -79 -24 -3 2 8 9 24 15 16 6 58 22 94
35 96 36 123 43 145 43 11 0 -9 -9 -45 -20z m410 7 c22 -11 35 -12 60 -4 25 9
39 8 68 -4 20 -9 44 -18 52 -21 9 -2 6 -5 -8 -5 -13 -1 -37 6 -54 15 -24 13
-35 13 -58 4 -23 -9 -34 -8 -60 5 -26 14 -38 15 -58 6 -16 -8 -50 -10 -91 -6
-43 4 -94 1 -145 -9 -90 -18 -111 -15 -39 4 26 8 98 14 160 15 62 0 115 4 119
8 11 10 22 9 54 -8z m502 -34 c51 -20 98 -64 85 -78 -3 -2 -11 5 -17 17 -7 12
-40 35 -75 51 -34 15 -65 36 -69 46 -5 16 -5 16 6 2 7 -8 39 -25 70 -38z
m-892 -6 c0 -2 -26 -12 -57 -21 -32 -9 -65 -19 -73 -21 -8 -3 -6 1 4 8 28 17
126 44 126 34z m661 -15 c24 -11 55 -20 69 -21 17 -1 20 -3 7 -6 -20 -5 -114
24 -122 38 -9 13 -3 12 46 -11z m131 -42 c10 -15 24 -21 49 -20 23 1 42 -7 59
-23 14 -13 51 -36 84 -50 58 -26 206 -148 206 -171 0 -7 7 -14 15 -17 20 -8
75 -86 74 -106 0 -14 -1 -14 -6 -1 -13 34 -65 100 -78 100 -8 0 -15 9 -15 20
0 10 -11 27 -25 37 -14 10 -47 39 -73 64 -31 29 -70 53 -110 68 -37 14 -67 33
-77 48 -14 20 -22 24 -46 19 -23 -4 -36 1 -62 24 -17 16 -27 30 -21 30 6 0 18
-10 26 -22z m-1080 -9 c-24 -11 -49 -18 -55 -16 -7 2 8 11 33 20 62 21 74 19
22 -4z m53 -23 c-126 -59 -335 -211 -335 -242 0 -8 -8 -14 -17 -13 -11 0 -13
3 -5 6 6 2 12 11 12 18 0 7 12 21 28 31 15 9 52 38 82 64 30 26 78 60 105 78
59 36 195 102 210 102 5 -1 -30 -20 -80 -44z m1581 -31 c2 -51 0 -55 -21 -55
-13 0 -26 -7 -29 -16 -9 -23 -26 -7 -25 24 l1 27 8 -30 c4 -16 8 -22 9 -12 1
11 9 17 25 17 21 0 23 4 22 45 0 25 -4 45 -8 45 -3 0 -15 -15 -27 -32 -11 -18
-21 -28 -21 -22 0 16 39 64 53 64 8 0 12 -20 13 -55z m-1696 16 c0 -4 -35 -29
-77 -55 -87 -52 -108 -68 -141 -110 -12 -16 -22 -24 -22 -19 0 24 49 69 139
129 107 71 101 67 101 55z m-725 -41 c-21 -16 -44 -30 -51 -30 -7 0 -15 -18
-19 -44 -7 -41 -10 -46 -48 -58 -29 -9 -45 -22 -58 -48 -10 -19 -32 -51 -49
-70 -30 -34 -30 -34 4 20 60 93 66 99 99 108 28 7 33 14 41 51 8 35 15 46 41
57 18 7 35 20 38 29 4 8 14 15 23 15 11 0 4 -10 -21 -30z m468 -157 c-7 -2
-19 -2 -25 0 -7 3 -2 5 12 5 14 0 19 -2 13 -5z m-40 -33 c-13 -5 -23 -18 -23
-29 0 -11 -12 -29 -27 -40 -16 -11 -35 -27 -43 -35 -22 -21 -105 -189 -141
-283 -16 -46 -35 -85 -40 -88 -5 -4 -9 -24 -9 -45 0 -21 -5 -42 -11 -46 -6 -3
-8 -18 -5 -33 6 -23 5 -24 -5 -7 -9 14 -9 24 0 37 6 11 11 34 11 52 0 18 7 43
16 55 8 12 26 54 39 93 40 116 131 278 171 301 23 13 34 28 34 42 0 28 8 36
34 35 20 0 20 -1 -1 -9z m11 -62 c-16 -24 -41 -57 -56 -75 -45 -53 -106 -166
-138 -255 -17 -45 -37 -95 -45 -110 -8 -15 -15 -52 -15 -85 0 -35 -8 -74 -20
-100 -16 -36 -17 -52 -10 -105 20 -142 30 -236 30 -273 0 -25 12 -59 34 -99
18 -34 37 -77 41 -96 3 -19 9 -44 12 -55 3 -11 3 -17 -1 -14 -3 3 -13 31 -21
62 -8 31 -28 81 -45 110 -17 30 -30 68 -30 87 0 34 -14 168 -30 280 -8 52 -6
70 7 95 8 16 19 64 23 105 12 121 102 328 195 450 31 41 63 88 72 103 8 16 17
26 20 23 3 -3 -7 -25 -23 -48z m1663 -54 c2 -13 1 -15 -4 -4 -3 8 -11 19 -17
23 -7 6 -6 7 4 4 8 -2 16 -12 17 -23z m489 8 c23 -18 44 -53 44 -72 0 -7 -15
-10 -37 -8 -36 3 -38 5 -38 38 -1 19 -4 41 -8 48 -12 18 14 15 39 -6z m-2857
-9 c-7 -10 -21 -27 -30 -38 -9 -11 -32 -47 -49 -80 -18 -33 -44 -74 -59 -90
-14 -17 -34 -42 -44 -55 l-18 -25 12 25 c7 13 30 47 51 74 22 27 45 64 53 83
14 32 82 123 92 123 3 0 -1 -8 -8 -17z m2303 2 c-18 -8 -49 -17 -70 -20 -20
-4 -54 -14 -75 -23 -36 -15 -38 -18 -33 -51 4 -26 3 -31 -4 -16 -19 42 -12 59
33 78 23 9 51 17 62 18 11 0 36 7 55 14 47 18 74 18 32 0z m708 -110 c7 -31 9
-59 6 -62 -3 -4 -6 0 -6 9 0 26 -29 113 -45 133 -14 19 -14 18 -9 -13 7 -37
-12 -66 -51 -76 -21 -5 -23 -10 -15 -35 4 -15 13 -37 19 -48 13 -25 77 -57 97
-49 8 3 14 1 14 -4 0 -18 -46 -10 -81 13 -34 23 -52 50 -64 98 -6 23 -2 27 36
42 39 16 41 18 35 50 -16 85 46 29 64 -58z m-340 10 c11 -22 19 -49 19 -60 -1
-12 -5 -6 -11 14 -5 19 -20 50 -34 70 -13 20 -24 42 -24 51 0 16 15 -7 50 -75z
m410 15 c25 -36 43 -97 37 -128 -3 -17 2 -35 13 -50 10 -12 30 -62 45 -110 15
-48 33 -104 41 -125 19 -50 18 -64 -6 -97 -16 -23 -18 -34 -10 -57 9 -26 9
-27 -5 -9 -20 27 -19 49 5 71 23 21 25 49 6 87 -8 15 -17 42 -21 60 -13 58
-47 152 -66 179 -13 19 -17 36 -13 57 4 22 -2 48 -25 95 -17 36 -30 73 -30 83
1 13 3 10 6 -6 3 -14 13 -36 23 -50z m-703 28 c-3 -7 -5 -2 -5 12 0 14 2 19 5
13 2 -7 2 -19 0 -25z m36 -98 c8 -30 25 -81 37 -114 11 -32 19 -63 17 -69 -3
-9 -67 181 -82 243 -12 48 13 -3 28 -60z m-407 33 c8 -21 26 -60 39 -88 13
-27 33 -72 45 -100 12 -27 27 -59 32 -70 7 -14 4 -13 -11 5 -11 14 -21 29 -21
34 0 5 -9 28 -19 50 -11 23 -36 76 -55 120 -32 71 -38 78 -58 72 -13 -4 -61
-16 -108 -27 -46 -10 -88 -23 -92 -27 -8 -8 24 -152 39 -176 4 -5 12 -33 19
-60 7 -28 24 -94 38 -146 14 -52 26 -99 26 -104 0 -24 -11 7 -30 84 -12 47
-25 94 -29 105 -10 24 -49 156 -61 205 -25 107 -28 97 31 114 195 55 196 55
215 9z m143 -115 c6 -57 19 -138 27 -181 9 -43 13 -81 10 -84 -11 -11 -36 19
-46 55 -13 49 -5 53 10 5 16 -49 34 -69 25 -28 -29 134 -53 335 -41 335 2 0 9
-46 15 -102z m-652 30 c-3 -8 -6 -5 -6 6 -1 11 2 17 5 13 3 -3 4 -12 1 -19z
m1231 -76 c13 -24 22 -55 21 -70 -2 -15 7 -49 20 -75 23 -50 52 -149 45 -156
-4 -4 -4 -3 -33 95 -11 39 -28 77 -36 84 -11 9 -14 23 -10 44 5 22 -1 44 -19
79 -14 26 -25 60 -25 75 2 27 2 27 8 -3 3 -16 16 -49 29 -73z m-1123 5 c19
-20 35 -42 35 -49 0 -7 -8 0 -19 15 -29 44 -58 59 -126 64 -74 6 -144 -14
-193 -56 -45 -39 -61 -115 -42 -197 16 -70 24 -87 64 -137 34 -43 124 -100
201 -128 28 -10 46 -18 41 -19 -4 0 2 -9 15 -20 l24 -21 -25 13 c-14 7 -27 15
-30 18 -3 3 -43 25 -90 47 -118 58 -176 118 -201 209 -33 120 -21 195 39 242
65 52 98 62 190 58 80 -4 84 -5 117 -39z m105 -18 c0 -5 -7 -9 -15 -9 -9 0
-12 6 -9 15 6 15 24 11 24 -6z m-1906 -15 c3 -8 2 -12 -4 -9 -6 3 -10 10 -10
16 0 14 7 11 14 -7z m2499 -6 c2 -13 8 -32 13 -43 7 -19 7 -19 -9 -4 -18 18
-31 69 -18 69 5 0 11 -10 14 -22z m-2502 -42 c-18 -19 -21 -30 -15 -63 4 -29
2 -42 -10 -52 -9 -7 -16 -24 -16 -37 0 -13 -6 -44 -12 -70 -11 -41 -11 -47 5
-55 25 -15 21 -32 -7 -25 -20 5 -23 3 -19 -18 3 -13 1 -26 -4 -29 -4 -3 -8 10
-9 29 0 19 4 34 10 34 6 0 12 17 13 38 3 64 15 116 30 134 11 12 13 28 8 59
-6 37 -4 44 16 60 33 25 37 23 10 -5z m2169 -2 c0 -8 11 -32 25 -54 14 -22 25
-44 25 -49 0 -6 9 -27 19 -48 21 -40 96 -200 151 -318 78 -170 69 -158 108
-152 41 7 38 0 -7 -13 l-31 -9 -36 77 c-19 42 -48 104 -64 137 -16 33 -49 103
-73 155 -80 172 -118 245 -113 221 3 -13 1 -20 -4 -15 -13 15 -24 98 -11 90 6
-4 11 -14 11 -22z m-430 12 c0 -3 -4 -8 -10 -11 -5 -3 -10 -1 -10 4 0 6 5 11
10 11 6 0 10 -2 10 -4z m70 -22 c0 -21 -4 -25 -22 -22 -13 2 -22 9 -20 16 2
10 -3 10 -17 2 -14 -7 -20 -19 -18 -40 1 -17 5 -30 10 -30 4 0 7 -14 7 -31 l0
-31 58 7 c31 4 60 10 65 14 4 4 -2 34 -13 66 -11 33 -19 64 -17 69 2 6 14 -22
26 -63 12 -40 19 -76 16 -80 -4 -3 -36 -11 -72 -17 -68 -12 -70 -11 -76 31 -1
11 -6 26 -11 33 -4 7 -6 16 -3 19 3 3 -9 19 -26 35 -22 21 -25 27 -10 19 12
-6 24 -16 26 -23 4 -9 6 -8 6 2 1 8 10 21 22 28 18 11 24 11 41 -5 11 -9 19
-13 18 -8 -3 16 0 35 5 35 3 0 5 -12 5 -26z m-583 5 c39 -15 88 -69 103 -115
7 -22 16 -43 20 -49 4 -5 15 -44 25 -86 15 -72 15 -78 -2 -117 -10 -23 -25
-42 -33 -43 -8 0 4 -7 28 -16 41 -14 72 -51 72 -85 0 -7 -8 2 -18 21 -18 36
-28 44 -77 62 -27 10 -28 12 -12 23 9 7 17 18 17 25 0 6 4 11 9 11 29 0 12
121 -35 238 -43 109 -114 151 -200 118 -21 -8 -68 -22 -104 -31 -36 -9 -74
-18 -85 -21 -17 -4 -18 -3 -4 5 9 6 52 19 95 30 44 10 90 24 104 29 33 14 62
14 97 1z m288 -11 c6 -20 8 -20 12 -5 2 9 11 17 19 17 20 0 17 -13 -7 -34 -23
-19 -37 -13 -44 22 -5 29 11 28 20 0z m1185 -40 c6 -29 18 -70 26 -90 7 -21
12 -38 9 -38 -8 0 -25 46 -44 122 -9 37 -14 65 -10 62 4 -2 12 -28 19 -56z
m-1055 45 c-34 -8 -66 -44 -59 -67 4 -16 3 -18 -5 -7 -8 12 -12 13 -25 1 -9
-7 -20 -9 -24 -5 -4 4 0 10 8 13 8 3 30 20 49 39 19 18 44 32 55 32 20 -1 20
-2 1 -6z m863 -88 l-1 -40 -8 45 c-4 25 -7 56 -7 70 0 23 1 22 8 -5 4 -16 8
-48 8 -70z m-741 59 c3 -8 0 -21 -6 -27 -9 -9 -11 -8 -5 7 5 13 4 17 -4 12 -7
-4 -12 -1 -12 8 0 21 19 21 27 0z m761 -9 c-3 -3 -9 2 -12 12 -6 14 -5 15 5 6
7 -7 10 -15 7 -18z m42 -117 c18 -57 40 -125 50 -153 37 -103 62 -187 57 -191
-3 -3 -15 28 -26 68 -12 40 -27 81 -32 92 -6 10 -12 26 -14 35 -7 29 -33 115
-48 156 -17 49 -29 95 -23 95 2 0 18 -46 36 -102z m-1660 86 c0 -3 -13 -10
-29 -15 -32 -11 -33 -2 14 -139 33 -95 55 -173 51 -178 -4 -4 -21 43 -65 183
-40 130 -40 126 -11 142 27 14 40 16 40 7z m1217 0 c-3 -3 -12 -4 -19 -1 -8 3
-5 6 6 6 11 1 17 -2 13 -5z m-426 -139 c129 -66 155 -80 187 -104 19 -13 43
-33 55 -46 33 -33 77 -131 82 -183 l5 -47 -13 50 c-32 121 -91 201 -182 247
-16 8 -64 33 -105 55 -56 31 -83 39 -106 36 -18 -3 -35 0 -38 6 -5 7 3 11 19
11 l27 0 -21 34 c-12 18 -21 40 -21 47 0 8 10 -6 23 -29 18 -34 37 -50 88 -77z
m508 48 c26 -81 27 -119 1 -44 -19 58 -32 111 -26 111 2 0 14 -30 25 -67z
m206 47 c3 -5 1 -10 -4 -10 -6 0 -11 5 -11 10 0 6 2 10 4 10 3 0 8 -4 11 -10z
m-2860 -18 c-3 -11 3 -30 16 -47 l22 -27 -32 7 c-30 6 -31 6 -20 -18 9 -19 7
-31 -6 -57 -13 -25 -16 -55 -14 -140 2 -76 -1 -113 -10 -124 -10 -12 -9 -24 8
-62 15 -33 21 -67 21 -118 0 -40 7 -98 15 -130 20 -77 13 -84 -9 -8 -9 32 -16
92 -16 133 0 52 -6 87 -20 118 -23 50 -25 70 -7 76 9 4 11 34 9 115 -3 84 0
117 12 140 11 23 12 38 6 56 -13 34 -13 34 11 34 18 0 19 3 9 15 -10 13 -6 55
6 55 3 0 3 -8 -1 -18z m2033 -6 c-2 -1 -12 -9 -23 -18 -19 -16 -20 -15 -20 6
0 18 5 21 23 18 13 -3 22 -5 20 -6z m940 -56 c0 -9 -3 -7 -8 5 -5 11 -8 29 -8
40 0 16 2 15 8 -5 4 -14 8 -32 8 -40z m-1940 26 c-10 -19 -12 -66 -7 -193 4
-92 10 -177 13 -188 l8 -20 -13 20 c-20 31 -30 353 -12 383 18 30 27 28 11 -2z
m2196 -140 c20 -61 36 -117 36 -125 0 -9 7 -25 15 -35 8 -11 15 -29 15 -41 0
-18 -9 -24 -51 -33 -29 -7 -54 -10 -56 -8 -5 5 64 26 85 26 16 0 15 22 -2 57
-8 15 -31 80 -51 143 -20 63 -39 122 -42 130 -4 10 -2 12 5 5 6 -5 27 -59 46
-119z m-449 104 c3 -5 1 -10 -4 -10 -6 0 -11 5 -11 10 0 6 2 10 4 10 3 0 8 -4
11 -10z m202 -32 c-3 -8 -6 -5 -6 6 -1 11 2 17 5 13 3 -3 4 -12 1 -19z m503
-24 c0 -6 -9 -21 -20 -34 -18 -20 -18 -25 -5 -51 8 -15 15 -39 15 -52 0 -12 5
-28 11 -34 7 -7 6 -29 -4 -74 -9 -35 -18 -80 -20 -100 -3 -19 -19 -57 -36 -84
-21 -32 -31 -62 -31 -87 0 -29 -9 -48 -40 -85 -89 -105 -147 -177 -182 -226
-21 -29 -56 -63 -83 -78 -26 -15 -68 -47 -94 -72 -25 -25 -57 -50 -71 -56
l-25 -12 24 18 c13 9 43 36 67 60 25 24 62 52 84 63 21 11 52 36 67 56 15 20
55 69 88 109 145 176 155 191 155 231 0 27 10 53 30 83 17 25 32 54 34 65 2
12 11 57 19 101 10 49 12 84 6 90 -5 5 -9 21 -9 36 0 15 -4 30 -9 33 -19 12
-18 47 1 71 13 16 17 33 13 47 -5 18 -4 20 4 8 6 -8 11 -20 11 -26z m-1357 -8
c6 -14 -1 -26 -14 -26 -4 0 -7 9 -6 20 1 23 12 26 20 6z m581 -81 c8 -32 13
-61 11 -63 -3 -4 -27 73 -41 133 -12 48 15 -14 30 -70z m-545 57 c8 -14 6 -19
-5 -19 -7 0 -14 9 -14 19 0 10 2 18 5 18 2 0 9 -8 14 -18z m61 9 c0 -5 3 -17
7 -27 5 -13 3 -15 -8 -9 -12 7 -12 6 -1 -7 9 -11 10 -18 2 -23 -11 -7 -12 -5
-16 43 -1 17 2 32 7 32 5 0 9 -4 9 -9z m775 -82 c3 -34 2 -59 -1 -56 -4 4 -8
25 -10 47 -1 22 -5 55 -9 73 -5 25 -4 28 5 15 6 -9 13 -45 15 -79z m-905 74
c0 -10 -20 -40 -20 -31 0 3 -3 13 -6 22 -4 11 -1 16 10 16 9 0 16 -3 16 -7z
m459 -72 c11 -41 19 -76 17 -79 -4 -3 -27 70 -42 133 -14 59 5 18 25 -54z
m-399 29 c0 -5 -4 -10 -10 -10 -5 0 -10 5 -10 10 0 6 5 10 10 10 6 0 10 -4 10
-10z m24 -27 c-10 -7 -25 -12 -33 -12 -13 1 -12 2 2 6 9 2 17 11 17 18 0 16
23 26 29 12 2 -6 -4 -16 -15 -24z m1712 -26 c9 -5 13 -24 12 -55 l-1 -47 -4
43 c-3 25 -10 45 -19 49 -8 3 -13 17 -13 37 2 27 2 28 6 6 3 -14 11 -29 19
-33z m-3538 -96 c-2 -71 -6 -124 -9 -118 -7 13 1 247 8 247 3 0 3 -58 1 -129z
m1932 89 c0 -13 -5 -17 -19 -13 -17 4 -18 8 -8 23 13 22 27 17 27 -10z m56 -7
c-1 -37 -18 -62 -43 -63 -7 0 -13 7 -13 15 0 9 -6 12 -15 9 -9 -4 -15 0 -15
10 0 9 6 13 13 10 7 -2 24 0 38 5 17 7 19 10 7 10 -10 1 -18 6 -18 13 0 6 3 9
6 5 4 -3 13 0 21 8 20 20 20 20 19 -22z m314 3 c0 -3 -4 -8 -10 -11 -5 -3 -10
-1 -10 4 0 6 5 11 10 11 6 0 10 -2 10 -4z m-1224 -133 c-5 -6 -24 49 -30 87
-3 21 2 12 14 -25 10 -32 18 -61 16 -62z m1323 28 c11 -41 19 -77 16 -79 -4
-4 -27 69 -41 133 -13 58 5 19 25 -54z m264 4 c3 -36 2 -52 -3 -40 -8 19 -14
113 -6 104 2 -2 6 -31 9 -64z m-687 -63 c21 -113 -113 -153 -163 -49 -12 23
-24 53 -27 67 -4 16 0 12 10 -10 34 -73 43 -85 68 -98 52 -26 106 10 106 71 0
19 -22 65 -50 103 -8 11 0 5 17 -14 18 -19 36 -51 39 -70z m274 37 c12 -39 20
-73 17 -76 -3 -3 -11 15 -17 39 -7 23 -16 53 -21 66 -5 13 -9 27 -9 32 0 23 9
5 30 -61z m-472 21 c3 -9 0 -10 -9 -4 -8 5 -25 8 -39 7 l-25 -2 25 8 c31 11
42 9 48 -9z m-542 -25 c-3 -9 7 -8 37 2 43 15 90 5 101 -22 3 -9 -5 -8 -28 5
-26 16 -38 18 -68 9 -37 -10 -37 -10 -24 -42 17 -42 29 -107 16 -87 -5 8 -12
32 -15 52 -4 21 -12 44 -19 51 -7 7 -16 25 -20 41 -6 26 -6 28 9 16 9 -7 14
-19 11 -25z m783 14 c-6 -12 -4 -19 7 -23 8 -3 12 -11 8 -17 -4 -8 -3 -9 4 -5
18 11 38 -4 21 -15 -11 -7 -12 -11 -1 -17 10 -7 9 -12 -4 -23 -13 -11 -18 -11
-21 -1 -3 6 -11 12 -19 12 -8 0 -14 7 -14 15 0 8 5 15 10 15 16 0 12 19 -10
42 -22 24 -19 37 9 35 15 -1 17 -5 10 -18z m1538 -16 c-3 -10 -5 -4 -5 12 0
17 2 24 5 18 2 -7 2 -21 0 -30z m-1893 11 c-8 -3 -8 -19 1 -57 40 -164 95
-213 233 -205 107 6 171 45 209 126 l13 27 -5 -27 c-7 -37 -68 -96 -123 -120
-63 -28 -168 -27 -221 2 -59 34 -88 83 -120 204 -11 41 -8 57 12 55 8 0 8 -2
1 -5z m1142 -36 c15 2 16 1 5 -7 -22 -14 -41 -1 -40 28 l1 26 7 -25 c5 -17 13
-24 27 -22z m-1246 -30 c7 -29 18 -64 25 -78 7 -14 18 -49 24 -79 6 -30 21
-71 33 -92 28 -51 14 -70 -51 -67 l-46 2 48 3 c26 2 50 10 53 16 2 7 -7 34
-21 61 -14 27 -25 57 -25 67 0 10 -9 43 -20 72 -26 70 -49 158 -39 152 4 -3
13 -29 19 -57z m808 17 c-3 -3 -9 2 -12 12 -6 14 -5 15 5 6 7 -7 10 -15 7 -18z
m-1253 -70 c4 -22 17 -71 30 -110 25 -76 40 -150 26 -125 -5 8 -14 40 -21 70
-7 30 -17 64 -23 75 -6 11 -16 47 -22 80 -7 33 -15 69 -19 80 -5 13 -2 11 8
-5 8 -14 18 -43 21 -65z m1554 44 c-8 -5 -21 -8 -29 -8 -9 0 -6 5 8 11 12 6
22 16 23 22 0 6 3 5 6 -3 3 -7 -1 -17 -8 -22z m-1878 -226 c46 -95 127 -223
140 -223 5 0 9 -8 9 -17 0 -25 -90 101 -138 194 -48 94 -97 215 -106 263 -3
19 7 -2 23 -47 16 -46 49 -122 72 -170z m625 165 c34 -106 64 -221 59 -227 -5
-5 -7 1 -30 89 -9 36 -28 98 -41 138 -25 76 -27 82 -20 82 3 0 17 -37 32 -82z
m347 58 c7 -18 -1 -26 -25 -26 -18 0 -25 20 -11 33 11 12 31 8 36 -7z m687
-48 c0 -21 -12 -29 -53 -33 -18 -1 -51 -6 -73 -10 l-41 -7 -7 37 c-4 20 -5 39
-2 42 2 3 8 -12 12 -32 6 -33 9 -36 33 -30 14 4 44 9 65 11 49 5 61 16 47 42
-16 30 -14 39 4 16 8 -10 15 -27 15 -36z m-2430 -37 c0 -45 -6 -37 -13 18 -4
29 -2 40 4 30 5 -7 9 -29 9 -48z m2000 49 c9 -6 10 -10 3 -10 -6 0 -19 -7 -28
-16 -18 -19 -4 -44 24 -44 12 1 10 4 -6 13 -22 12 -22 12 11 34 l34 22 0 -25
c0 -13 -4 -24 -9 -24 -5 0 -9 -6 -9 -14 0 -18 -47 -25 -78 -12 -16 7 -26 6
-35 -4 -9 -10 -9 -11 1 -6 6 4 12 2 12 -3 0 -6 -7 -11 -15 -11 -8 0 -15 -4
-15 -10 0 -5 -10 -10 -23 -10 -13 0 -28 -5 -35 -12 -9 -9 -15 -9 -24 0 -9 10
-8 16 6 30 11 10 15 11 11 3 -7 -11 -4 -13 11 -6 10 4 27 8 37 9 9 0 17 4 17
8 0 14 41 49 50 43 9 -5 11 -1 10 20 0 7 24 34 30 34 3 1 12 -4 20 -9z m1128
-20 c-11 -33 -28 -49 -28 -28 0 13 27 58 35 58 2 0 -1 -14 -7 -30z m-1364 -11
c-6 -11 -44 -12 -44 -1 0 4 11 8 25 8 14 1 22 -2 19 -7z m62 -19 c5 1 10 -3
12 -9 2 -6 -3 -11 -11 -11 -9 0 -21 -2 -29 -3 -7 -2 -10 -2 -5 0 4 3 7 14 7
26 0 16 3 18 9 9 4 -8 12 -13 17 -12z m1694 -15 c-6 -15 -10 -48 -9 -75 2 -37
-5 -59 -30 -102 -17 -31 -38 -62 -47 -69 -9 -7 -20 -23 -25 -36 -6 -16 -13
-21 -25 -16 -13 5 -12 -1 6 -25 26 -35 28 -22 -24 -167 -13 -38 -25 -65 -25
-60 -2 19 20 90 41 132 20 44 18 74 -9 105 -15 17 -2 35 17 23 6 -3 10 -1 10
4 0 6 16 32 35 57 53 70 68 104 66 153 -1 42 16 117 25 108 3 -2 0 -17 -6 -32z
m-2225 -73 c10 -40 15 -75 12 -78 -2 -3 -12 28 -22 68 -9 40 -19 80 -21 88 -3
10 -2 11 4 5 5 -5 17 -43 27 -83z m1814 51 c0 -12 -2 -13 -6 -5 -9 23 -33 -8
-33 -43 0 -20 -8 -39 -21 -51 -12 -10 -28 -32 -36 -47 -8 -16 -17 -27 -19 -24
-8 7 35 75 51 81 10 3 15 19 15 42 0 23 6 42 18 50 23 18 32 17 31 -3z m-3104
-60 c4 -25 20 -82 36 -125 30 -83 35 -103 19 -78 -27 41 -88 266 -70 255 4 -3
11 -26 15 -52z m3089 -25 c-16 -31 -74 -105 -74 -93 0 2 15 25 34 50 19 24 38
54 41 66 4 11 9 18 12 16 2 -3 -3 -20 -13 -39z m-2191 -156 c20 -24 37 -49 37
-55 0 -17 79 -91 119 -111 18 -10 36 -26 38 -37 3 -10 11 -19 18 -19 7 0 24
-15 38 -32 15 -21 48 -43 88 -60 35 -15 88 -37 117 -49 29 -12 51 -23 49 -26
-2 -2 -49 15 -103 37 -54 23 -106 44 -114 47 -8 3 5 -14 28 -39 31 -32 59 -50
95 -61 29 -9 81 -26 117 -38 123 -40 215 -68 248 -74 18 -4 31 -9 28 -12 -7
-7 -105 16 -137 33 -15 7 -55 20 -90 28 -135 31 -215 65 -274 117 -31 27 -65
49 -75 49 -11 0 -55 35 -98 78 -44 42 -88 83 -98 90 -10 7 0 3 23 -8 23 -11
44 -28 48 -39 3 -11 17 -26 30 -35 13 -8 36 -29 52 -45 15 -16 44 -32 63 -36
l35 -7 -27 25 c-16 14 -28 31 -28 37 0 5 -9 10 -20 10 -13 0 -20 7 -20 20 0
13 -11 25 -29 32 -36 16 -131 104 -131 121 0 7 -23 40 -51 72 -28 33 -55 69
-60 80 -5 11 3 4 18 -14 15 -19 45 -55 66 -79z m447 11 c0 -7 -12 -15 -27 -19
-16 -3 -46 -12 -68 -20 -60 -21 -72 -18 -80 17 -4 17 -5 33 -2 35 3 3 8 -8 12
-25 7 -31 36 -43 50 -22 3 6 26 13 50 17 25 3 47 10 50 14 3 4 -2 24 -10 44
-8 19 -15 39 -14 43 1 12 38 -70 39 -84z m-176 41 c3 -8 2 -12 -4 -9 -6 3 -10
10 -10 16 0 14 7 11 14 -7z m332 -9 c-11 -8 -27 -15 -35 -15 -9 1 -2 7 14 15
39 18 44 18 21 0z m1510 -10 c16 -24 15 -30 -17 -131 -28 -86 -39 -108 -62
-122 -16 -10 -41 -43 -60 -82 -23 -48 -38 -66 -55 -68 -13 -2 -29 -16 -38 -35
-65 -126 -289 -291 -558 -412 -81 -36 -150 -64 -153 -61 -3 3 10 11 28 19 19
8 62 26 96 41 151 64 284 139 387 220 73 58 176 159 182 180 9 30 34 56 55 56
12 0 26 19 43 56 14 31 41 70 59 88 24 22 43 57 66 124 31 88 32 94 16 118
l-16 25 -41 -63 c-45 -69 -152 -178 -244 -248 -60 -47 -236 -160 -247 -160 -4
0 -34 -13 -67 -29 -33 -16 -58 -26 -55 -21 3 4 44 27 92 50 222 107 456 303
535 449 21 38 32 39 54 6z m-3347 -61 c11 -32 18 -60 16 -62 -4 -4 -45 105
-45 120 0 21 10 2 29 -58z m461 -119 c58 -111 74 -133 108 -146 13 -5 22 -17
22 -30 0 -12 5 -19 13 -16 6 2 11 14 9 25 -5 33 24 39 47 11 23 -28 38 -20 21
10 -14 27 -5 41 25 41 28 0 36 -18 28 -63 -5 -31 -3 -34 18 -33 18 1 25 -5 28
-24 1 -14 8 -28 15 -32 13 -9 -10 -28 -34 -28 -12 1 -12 2 2 10 26 16 9 66
-21 62 -21 -3 -23 0 -21 35 4 55 2 63 -16 63 -13 0 -15 -7 -10 -35 6 -31 4
-35 -13 -35 -11 0 -25 9 -31 20 -13 24 -35 27 -26 4 7 -19 -10 -44 -30 -44 -8
0 -14 9 -14 20 0 12 -10 25 -25 32 -13 6 -35 28 -49 48 -39 59 -124 233 -102
209 2 -2 27 -49 56 -104z m-281 -258 c18 -26 43 -49 61 -55 18 -7 30 -18 30
-29 0 -10 4 -24 9 -32 7 -11 14 -9 35 12 14 14 26 21 26 14 0 -11 -49 -47 -63
-47 -3 0 -8 14 -12 31 -5 22 -15 34 -36 41 -19 7 -41 29 -65 69 -43 71 -129
244 -138 279 -4 14 22 -34 57 -107 36 -72 79 -152 96 -176z m3481 69 c-5 -14
-21 -31 -35 -38 -29 -13 -48 -40 -92 -130 -27 -57 -36 -68 -57 -68 -15 0 -30
-8 -36 -21 -7 -11 -14 -18 -17 -16 -11 12 19 46 44 49 24 3 34 15 68 83 27 54
51 86 72 100 18 11 37 33 44 48 15 35 23 29 9 -7z m-815 -15 c-6 -5 -33 -16
-62 -25 -28 -10 -63 -26 -77 -37 -13 -10 -30 -19 -36 -19 -24 0 35 37 100 63
68 28 91 33 75 18z m-1002 -75 c47 -23 94 -37 137 -41 35 -3 67 -9 70 -12 5
-5 -95 3 -142 13 -31 6 -169 74 -150 74 7 0 45 -15 85 -34z m-1398 -51 l0 -60
30 0 c26 0 30 -3 27 -24 -1 -13 3 -30 9 -38 14 -16 12 -18 -21 -27 l-25 -7 24
14 c16 10 20 16 12 21 -7 4 -11 17 -9 29 3 19 -1 22 -24 19 -22 -2 -29 2 -33
21 -5 18 -12 23 -38 21 -18 -1 -22 1 -9 3 25 5 27 15 11 44 -15 29 -4 51 23
47 21 -3 23 -8 23 -63z m2165 30 c-19 -7 -55 -14 -80 -14 -26 -1 -51 -6 -58
-13 -8 -8 -12 -8 -12 -1 0 14 24 23 68 24 20 1 48 5 62 9 42 13 57 9 20 -5z
m-1913 -2 c-11 -3 -16 -10 -13 -20 3 -8 6 -17 6 -19 0 -2 10 -5 23 -5 17 -1
18 -2 4 -6 -23 -6 -47 14 -47 38 0 13 7 19 23 18 18 -1 18 -2 4 -6z m-347 -7
c0 -2 3 -13 6 -23 6 -16 5 -16 -9 2 -14 17 -18 18 -27 5 -8 -13 -10 -13 -10 3
0 10 8 17 20 17 11 0 20 -2 20 -4z m2085 -23 c-10 -3 -30 -12 -42 -20 -19 -13
-42 -14 -126 -8 -56 4 -122 11 -147 16 -44 8 -44 8 10 4 215 -17 245 -17 265
-1 11 8 29 15 40 15 20 -1 20 -1 0 -6z m180 -3 c-16 -4 -43 -15 -60 -24 -16
-9 -42 -16 -57 -16 -15 0 -37 -5 -50 -10 -16 -7 -41 -8 -78 -1 l-55 10 62 -5
c37 -3 64 -1 68 6 3 5 21 10 38 10 18 0 50 9 72 19 22 11 51 19 65 19 23 0 22
-1 -5 -8z m-1815 -35 c10 -12 10 -19 2 -27 -19 -19 -15 -26 28 -53 22 -14 40
-32 40 -40 0 -8 4 -15 10 -15 5 0 38 -20 73 -45 36 -25 68 -45 72 -45 15 0
122 -59 188 -104 61 -41 70 -44 94 -33 23 10 28 9 40 -10 12 -18 21 -21 45
-16 23 5 34 2 45 -13 10 -14 28 -19 76 -20 34 -1 96 -9 137 -18 l75 -16 -63 5
c-35 3 -72 10 -84 16 -12 7 -41 8 -73 4 -47 -5 -55 -4 -68 16 -12 17 -22 20
-43 15 -20 -5 -32 -2 -49 14 -19 18 -27 20 -45 10 -18 -10 -31 -5 -95 38 -40
28 -115 71 -166 97 -52 25 -105 56 -119 69 -14 13 -33 26 -42 29 -10 4 -18 13
-18 21 0 8 -8 17 -18 20 -11 4 -29 17 -42 31 -19 20 -21 27 -10 40 15 18 13
21 -20 34 -23 9 -23 10 -4 10 12 1 27 -6 34 -14z m1313 -22 c-7 -2 -21 -2 -30
0 -10 3 -4 5 12 5 17 0 24 -2 18 -5z m172 -8 c-33 -15 -84 -17 -130 -4 -22 5
-14 6 25 3 30 -3 69 0 85 5 44 14 55 11 20 -4z m1135 -84 c0 -17 -107 -135
-150 -166 -24 -16 -61 -46 -84 -66 -35 -31 -85 -64 -226 -152 -17 -11 -30 -17
-30 -14 0 3 44 33 98 68 168 109 337 252 368 312 15 27 24 35 24 18z m-2990
-15 c-61 -22 -46 -62 28 -77 30 -5 32 -7 10 -8 -40 -2 -78 16 -87 41 -10 27 1
45 32 51 44 8 51 5 17 -7z m97 -94 c8 -5 12 -24 10 -47 -2 -36 1 -41 38 -62
22 -12 32 -23 23 -23 -9 0 -31 12 -48 27 -27 23 -31 31 -27 60 4 24 1 35 -11
43 -9 5 -12 9 -7 10 6 0 16 -4 22 -8z m353 -45 c0 -8 -9 -22 -20 -32 -11 -10
-20 -31 -20 -47 0 -38 -14 -35 -34 6 -23 48 -21 70 5 63 12 -3 22 0 26 9 7 18
43 18 43 1z m-239 -127 c5 0 34 -20 63 -44 30 -24 102 -67 160 -95 58 -28 130
-68 158 -89 82 -60 113 -74 154 -66 29 5 38 3 51 -15 13 -19 21 -21 53 -16 32
5 40 3 53 -15 9 -12 30 -26 49 -30 32 -8 32 -8 5 -9 -18 -1 -36 8 -51 24 -19
20 -29 24 -55 19 -25 -5 -37 -2 -55 15 -19 18 -31 21 -59 16 -40 -8 -57 0
-137 59 -30 22 -104 65 -165 95 -101 49 -174 96 -200 127 -6 6 -19 13 -30 15
-11 3 -21 13 -23 24 -2 18 -2 19 8 3 6 -10 15 -18 21 -18z m1744 21 c-12 -11
-117 -43 -122 -37 -4 4 103 44 122 45 5 1 5 -2 0 -8z m-154 -53 c-13 -4 -38
-6 -55 -3 -17 4 -50 -1 -75 -9 -24 -9 -62 -15 -85 -15 l-41 1 50 9 c28 4 64
12 80 17 40 13 160 13 126 0z m-318 -35 c-35 -2 -91 -2 -125 0 -35 2 -7 3 62
3 69 0 97 -1 63 -3z m1002 -62 c-17 -15 -287 -132 -293 -127 -3 3 8 11 24 16
17 6 82 35 144 64 114 54 143 65 125 47z m-310 -140 c-22 -21 -232 -97 -241
-88 -3 3 18 12 48 21 29 8 85 29 123 45 76 33 84 35 70 22z m-1152 -98 c-7 -2
-19 -2 -25 0 -7 3 -2 5 12 5 14 0 19 -2 13 -5z m59 -3 c13 -6 57 -17 98 -25
l75 -14 -65 5 c-36 3 -83 14 -105 24 -22 10 -37 19 -33 19 4 1 17 -4 30 -9z
m823 0 c-11 -5 -36 -8 -55 -8 l-35 1 40 7 c57 10 74 10 50 0z m-175 -20 c-30
-11 -71 -19 -90 -19 -27 1 -20 4 29 14 35 8 66 17 69 20 3 3 15 5 26 4 12 -1
-4 -9 -34 -19z m-222 -27 c-42 -2 -114 -2 -160 0 -46 1 -11 3 77 3 88 0 125
-2 83 -3z"/>
<path d="M3380 3741 c0 -21 13 -41 26 -41 8 0 14 10 14 25 0 18 -5 25 -20 25
-11 0 -20 -4 -20 -9z"/>
<path d="M3963 3040 c-2 -38 0 -40 27 -40 23 0 27 4 23 19 -3 11 -15 29 -27
40 l-22 21 -1 -40z"/>
<path d="M2870 2106 c0 -8 4 -17 9 -20 5 -4 7 3 4 14 -6 23 -13 26 -13 6z"/>
<path d="M2570 2090 c0 -5 7 -10 16 -10 8 0 12 5 9 10 -3 6 -10 10 -16 10 -5
0 -9 -4 -9 -10z"/>
<path d="M2670 1940 c0 -5 5 -10 11 -10 5 0 7 5 4 10 -3 6 -8 10 -11 10 -2 0
-4 -4 -4 -10z"/>
<path d="M930 1300 c0 -6 8 -25 17 -43 l18 -32 3 28 c2 16 1 35 -2 43 -6 16
-36 19 -36 4z"/>
<path d="M1371 934 c-7 -8 -20 -13 -28 -10 -12 5 -14 1 -8 -21 8 -35 25 -54
25 -29 0 10 9 31 21 47 21 30 14 40 -10 13z"/>
</g>
</svg>
